<?xml version="1.0"?>
<svg xmlns="http://www.w3.org/2000/svg" xmlns:xlink="http://www.w3.org/1999/xlink" version="1.1" id="Layer_1" x="0px" y="0px" viewBox="0 0 496 496" style="enable-background:new 0 0 496 496;" xml:space="preserve" width="512px" height="512px" class=""><g><path style="fill:#1FA1DC" d="M174.984,115.936C180.632,108.056,184,98.432,184,88c0-26.512-21.488-48-48-48S88,61.488,88,88  c0,10.432,3.368,20.056,9.016,27.936L72,216l24-16l16,32l17.04-96.56c2.28,0.328,4.592,0.56,6.96,0.56s4.68-0.232,6.96-0.56L160,232  l16-32l24,16L174.984,115.936z" data-original="#F9BA48" class="" data-old_color="#1fa1dc"/><g>
	<path style="fill:#343A40" d="M136,144c30.872,0,56-25.128,56-56s-25.128-56-56-56S80,57.128,80,88S105.128,144,136,144z M136,48   c22.056,0,40,17.944,40,40s-17.944,40-40,40s-40-17.944-40-40S113.944,48,136,48z" data-original="#333333" class="active-path" data-old_color="#343a40"/>
	<path style="fill:#343A40" d="M472,128c-6.168,0-11.744,2.408-16,6.24c-4.256-3.84-9.832-6.24-16-6.24h-88v-27.464L251.312,0H0   v496h352V224h16v272h48V224h24c6.168,0,11.744-2.408,16-6.24c4.256,3.84,9.832,6.24,16,6.24c13.232,0,24-10.768,24-24v-48   C496,138.768,485.232,128,472,128z M256,27.296L324.808,96H256V27.296z M16,480V16h224v96h96v17.472   c-2.992,1.064-5.688,2.688-8,4.768c-4.256-3.84-9.832-6.24-16-6.24c-13.232,0-24,10.768-24,24v48c0,13.232,10.768,24,24,24   c6.168,0,11.744-2.408,16-6.24c2.312,2.08,5.008,3.704,8,4.768V480H16z M320,200c0,4.416-3.584,8-8,8s-8-3.584-8-8v-48   c0-4.416,3.584-8,8-8s8,3.584,8,8V200z M400,480h-16V224h16V480z M440,208h-24h-48h-24c-4.416,0-8-3.584-8-8v-48   c0-4.416,3.584-8,8-8h96c4.416,0,8,3.584,8,8v48C448,204.416,444.416,208,440,208z M480,200c0,4.416-3.584,8-8,8s-8-3.584-8-8v-48   c0-4.416,3.584-8,8-8s8,3.584,8,8V200z" data-original="#333333" class="active-path" data-old_color="#343a40"/>
	<rect x="40" y="280" style="fill:#343A40" width="272" height="16" data-original="#333333" class="active-path" data-old_color="#343a40"/>
	<rect x="40" y="320" style="fill:#343A40" width="272" height="16" data-original="#333333" class="active-path" data-old_color="#343a40"/>
	<rect x="40" y="360" style="fill:#343A40" width="272" height="16" data-original="#333333" class="active-path" data-old_color="#343a40"/>
	<rect x="40" y="400" style="fill:#343A40" width="272" height="16" data-original="#333333" class="active-path" data-old_color="#343a40"/>
	<rect x="40" y="440" style="fill:#343A40" width="272" height="16" data-original="#333333" class="active-path" data-old_color="#343a40"/>
</g></g> </svg>
