<?xml version="1.0"?>
<svg xmlns="http://www.w3.org/2000/svg" xmlns:xlink="http://www.w3.org/1999/xlink" version="1.1" id="Layer_1" x="0px" y="0px" viewBox="0 0 488 488" style="enable-background:new 0 0 488 488;" xml:space="preserve" width="512px" height="512px" class="hovered-paths"><g><g>
	<path style="fill:#343A40" d="M256,0H144C64.6,0,0,64.6,0,144c0,41,17.448,79.856,48,107.216v90.568l67.968-38.84l-7.936-13.888   L64,314.208v-70.32l-2.824-2.4C32.472,217.08,16,181.536,16,144C16,73.424,73.424,16,144,16h112c70.576,0,128,57.424,128,128   c0,9.04-1.024,18.28-3.032,27.464l15.624,3.424C398.848,164.584,400,154.192,400,144C400,64.6,335.4,0,256,0z" data-original="#333333" class="hovered-path active-path" data-old_color="#333333"/>
	<rect x="72" y="64" style="fill:#343A40" width="256" height="16" data-original="#333333" class="hovered-path active-path" data-old_color="#333333"/>
	<rect x="72" y="112" style="fill:#343A40" width="256" height="16" data-original="#333333" class="hovered-path active-path" data-old_color="#333333"/>
	<rect x="72" y="160" style="fill:#343A40" width="184" height="16" data-original="#333333" class="hovered-path active-path" data-old_color="#333333"/>
</g><path style="fill:#1FA1DC" d="M352,168H240c-75.112,0-136,60.888-136,136l0,0c0,75.112,60.888,136,136,136h112  c0.824,0,1.624-0.112,2.448-0.12L440,488v-80.408c29.336-24.944,48-62.064,48-103.592l0,0C488,228.888,427.112,168,352,168z   M360,408H224v-20c0-37.552,30.448-68,68-68c-33.136,0-60-26.864-60-60s26.864-60,60-60s60,26.864,60,60s-26.864,60-60,60  c37.552,0,68,30.448,68,68V408z" data-original="#F9BA48" class="" data-old_color="#F9BA48"/><g>
	<path style="fill:#343A40" d="M324.784,319.536C345.752,307.944,360,285.608,360,260c0-37.496-30.504-68-68-68s-68,30.504-68,68   c0,25.608,14.248,47.944,35.216,59.536C233.704,331.808,216,357.84,216,388v28h152v-28C368,357.84,350.296,331.808,324.784,319.536   z M240,260c0-28.672,23.328-52,52-52s52,23.328,52,52s-23.328,52-52,52S240,288.672,240,260z M352,400H232v-12   c0-33.088,26.912-60,60-60s60,26.912,60,60V400z" data-original="#333333" class="hovered-path active-path" data-old_color="#333333"/>
	<circle style="fill:#343A40" cx="272" cy="240" r="8" data-original="#333333" class="hovered-path active-path" data-old_color="#333333"/>
	<circle style="fill:#343A40" cx="312" cy="240" r="8" data-original="#333333" class="hovered-path active-path" data-old_color="#333333"/>
	<path style="fill:#343A40" d="M317.44,267.176C311.28,275.328,302.008,280,292,280s-19.28-4.672-25.44-12.824l-12.768,9.64   C263.008,289.008,276.928,296,292,296s28.992-6.992,38.2-19.176L317.44,267.176z" data-original="#333333" class="hovered-path active-path" data-old_color="#333333"/>
</g></g> </svg>
