<?xml version="1.0"?>
<svg xmlns="http://www.w3.org/2000/svg" xmlns:xlink="http://www.w3.org/1999/xlink" version="1.1" id="Layer_1" x="0px" y="0px" viewBox="0 0 496 496" style="enable-background:new 0 0 496 496;" xml:space="preserve" width="512px" height="512px" class=""><g><g>
	<path style="fill:#343A40" d="M336,4v160h160V4H336z M440,20h40v52.904l-17.176-5.728l-13.336,8.896l-49.304-16.44L352,73.392V20   H440z M352,148V90.04l47.824-13.664l32.8,10.928l-21.056,14.04l8.872,13.312l44.744-29.832L480,89.768V148H352z" data-original="#333333" class="" data-old_color="#343a40"/>
	<path style="fill:#343A40" d="M416,44c0,13.232,10.768,24,24,24s24-10.768,24-24s-10.768-24-24-24S416,30.768,416,44z M440,36   c4.416,0,8,3.584,8,8s-3.584,8-8,8s-8-3.584-8-8S435.584,36,440,36z" data-original="#333333" class="" data-old_color="#343a40"/>
	<path style="fill:#343A40" d="M472,348h8v-48h-8v-32h-16v-32H320v48h16v32h8v16h-8v32H192v-24h80c13.232,0,24-10.768,24-24v-24h-8   H8H0v24c0,13.232,10.768,24,24,24h80v24H0v48h24v80h16v-80h16v80h16v-80h352v80h16v-80h16v80h16v-80h24v-48h-24V348z M336,252h104   v16H336V252z M456,284v16H352v-16H456z M360,316h104v16H360V316z M352,348h104v16H352V348z M24,324c-4.416,0-8-3.584-8-8v-8h264v8   c0,4.416-3.584,8-8,8h-80h-88H24z M120,340h56v24h-56V340z M480,380v16h-8h-48H72H24h-8v-16h88h88h144h136H480z" data-original="#333333" class="" data-old_color="#343a40"/>
	<path style="fill:#343A40" d="M80,132c35.288,0,64-28.712,64-64S115.288,4,80,4S16,32.712,16,68S44.712,132,80,132z M80,20   c26.472,0,48,21.528,48,48s-21.528,48-48,48S32,94.472,32,68S53.528,20,80,20z" data-original="#333333" class="" data-old_color="#343a40"/>
	<polygon style="fill:#343A40" points="108.44,77.344 88,63.72 88,36 72,36 72,72.28 99.56,90.656  " data-original="#333333" class="" data-old_color="#343a40"/>
</g><path style="fill:#1FA1DC" d="M296,308H0V164c0-13.232,10.768-24,24-24h248c13.232,0,24,10.768,24,24V308z" data-original="#F9BA48" class="active-path" data-old_color="#1fa1dc"/></g> </svg>
