<?xml version="1.0"?>
<svg xmlns="http://www.w3.org/2000/svg" xmlns:xlink="http://www.w3.org/1999/xlink" version="1.1" id="Layer_1" x="0px" y="0px" viewBox="0 0 475.686 475.686" style="enable-background:new 0 0 475.686 475.686;" xml:space="preserve" width="512px" height="512px" class=""><g><circle style="fill:#1FA1DC" cx="237.845" cy="257.699" r="88" data-original="#F9BA48" class="active-path" data-old_color="#1fa1dc"/><g>
	<path style="fill:#343A40" d="M188.765,135.979c2.88-1.904,5.92-3.64,9.08-5.192v14.912h80v-14.912   c3.16,1.552,6.192,3.288,9.08,5.192c9.76,6.464,22.88,5.072,31.256-3.304c5.44-5.44,8.064-12.928,7.208-20.568   c-0.84-7.528-4.984-14.16-11.368-18.168c-10.256-6.472-25.776-13.728-46.608-17.544c6.416-7.096,10.432-16.4,10.432-26.696   c0-22.056-17.944-40-40-40s-40,17.944-40,40c0,10.296,4.016,19.6,10.424,26.696c-20.832,3.816-36.352,11.072-46.608,17.544   c-6.384,4.016-10.52,10.64-11.368,18.168c-0.848,7.64,1.776,15.136,7.208,20.568C165.877,141.043,179.005,142.427,188.765,135.979z    M213.845,49.699c0-13.232,10.768-24,24-24s24,10.768,24,24s-10.768,24-24,24S213.845,62.931,213.845,49.699z M166.205,113.883   c0.168-1.568,0.92-4.488,3.992-6.424c12.856-8.096,35.032-17.76,67.648-17.76s54.792,9.664,67.648,17.768   c3.072,1.936,3.824,4.848,3.992,6.424c0.312,2.776-0.64,5.504-2.616,7.48c-3.008,3-7.688,3.536-11.12,1.272   c-7.136-4.72-14.984-8.536-23.344-11.36l-10.56-3.576v21.992h-48v-21.992l-10.56,3.568c-8.36,2.824-16.208,6.64-23.344,11.36   c-3.44,2.28-8.12,1.728-11.12-1.272C166.845,119.387,165.893,116.659,166.205,113.883z" data-original="#333333" class="" data-old_color="#343a40"/>
	<path style="fill:#343A40" d="M94.101,295.475c10.544-5.368,15.936-17.44,12.824-28.712c-0.928-3.328-1.64-6.752-2.144-10.24   l14.176,4.608l24.728-76.088l-14.176-4.6c2.448-2.52,5.04-4.872,7.744-7.04c9.152-7.272,11.88-20.2,6.504-30.744   c-3.488-6.84-9.8-11.664-17.32-13.208c-7.432-1.512-15.008,0.36-20.808,5.192c-9.32,7.752-21.016,20.256-31.072,38.888   c-4.944-8.592-12.672-15.064-22.176-18.152c-20.952-6.8-43.584,4.704-50.4,25.68c-3.304,10.168-2.456,21,2.4,30.52   c4.848,9.512,13.12,16.576,23.28,19.88c4.072,1.32,8.24,1.976,12.408,1.976c5.536,0,11.024-1.232,16.184-3.528   c-2.784,20.936-0.68,37.904,2.296,49.632c1.856,7.312,6.88,13.304,13.784,16.432c3.32,1.504,6.848,2.248,10.368,2.248   C86.613,298.219,90.509,297.299,94.101,295.475z M32.605,216.243c-6.096-1.976-11.056-6.216-13.96-11.928   c-2.912-5.712-3.424-12.208-1.44-18.312c3.288-10.128,12.728-16.584,22.84-16.584c2.456,0,4.944,0.384,7.4,1.176   c12.576,4.08,19.488,17.64,15.408,30.224c0,0,0,0.008-0.008,0.008c0,0.008,0,0.016-0.008,0.024   C58.757,213.427,45.205,220.339,32.605,216.243z M74.061,275.603c-3.744-14.728-6.08-38.8,4.008-69.832   c10.08-31.024,26.12-49.12,37.8-58.832c1.912-1.592,3.928-2.008,5.504-2.008c0.72,0,1.352,0.088,1.832,0.184   c2.736,0.56,5.024,2.312,6.296,4.808c1.928,3.792,1,8.4-2.216,10.96c-6.712,5.352-12.776,11.64-18.024,18.704l-6.648,8.936   l20.912,6.8l-14.832,45.648l-20.912-6.792l0.128,11.144c0.104,8.832,1.312,17.48,3.592,25.712c1.104,3.968-0.856,8.24-4.656,10.176   c-2.488,1.264-5.376,1.328-7.904,0.176C77.501,280.747,74.957,279.131,74.061,275.603z" data-original="#333333" class="" data-old_color="#343a40"/>
	<path style="fill:#343A40" d="M206.013,385.019c-3.472-0.16-6.944-0.528-10.416-1.136l8.768-12.072l-64.712-47.016l-8.776,12.064   c-1.64-3.12-3.08-6.312-4.288-9.544c-4.104-10.936-15.536-17.568-27.232-15.688c-7.584,1.192-14.12,5.72-17.912,12.392   c-3.744,6.584-4.288,14.384-1.496,21.384c4.488,11.256,12.768,26.256,27.384,41.584c-9.704,2.048-18.24,7.392-24.112,15.472   c-6.28,8.64-8.824,19.208-7.152,29.768s7.352,19.824,15.992,26.104c6.904,5.024,15.048,7.656,23.432,7.656   c2.104,0,4.216-0.168,6.344-0.504c10.552-1.672,19.824-7.352,26.112-15.992c6.048-8.328,8.264-18.216,7.248-27.72   c19.104,9.16,35.92,12.4,48.016,13.2c0.544,0.032,1.096,0.056,1.64,0.056c6.928,0,13.504-2.896,18.24-8.088   c5.168-5.672,7.456-13.28,6.248-20.872C227.493,394.379,217.677,385.531,206.013,385.019z M135.013,440.083   c-3.776,5.184-9.336,8.592-15.672,9.6c-6.272,0.992-12.672-0.52-17.856-4.288c-5.184-3.776-8.592-9.336-9.6-15.664   c-1-6.336,0.52-12.672,4.288-17.856c3.776-5.184,9.336-8.592,15.664-9.6c1.272-0.192,2.544-0.296,3.808-0.296   c5.024,0,9.912,1.576,14.056,4.592C140.397,414.339,142.781,429.379,135.013,440.083z M211.285,416.155   c-1.064,1.16-3.248,3.08-7.016,2.84c-15.16-0.992-38.776-6.2-65.168-25.376c-26.4-19.192-38.648-40.04-44.28-54.144v-0.008   c-1.344-3.368-0.232-6.168,0.544-7.536c1.376-2.432,3.752-4.072,6.496-4.504c0.488-0.072,0.968-0.112,1.448-0.112   c3.672,0,7.032,2.2,8.304,5.608c2.984,7.984,7.096,15.696,12.2,22.912l6.448,9.096l12.928-17.792l38.832,28.216l-12.912,17.784   l10.624,3.32c8.408,2.632,17.008,4.16,25.568,4.536c4.112,0.176,7.576,3.368,8.248,7.56   C213.997,411.323,213.165,414.091,211.285,416.155z" data-original="#333333" class="" data-old_color="#343a40"/>
	<path style="fill:#343A40" d="M368.349,386.987c14.616-15.336,22.896-30.328,27.384-41.576c2.8-7.008,2.248-14.808-1.496-21.392   c-3.8-6.672-10.328-11.192-17.912-12.392c-11.68-1.872-23.136,4.752-27.232,15.688c-1.208,3.24-2.648,6.432-4.288,9.544   l-8.776-12.064l-64.712,47.016l8.768,12.072c-3.472,0.6-6.944,0.976-10.408,1.136c-11.664,0.512-21.488,9.36-23.344,21.048   c-1.2,7.584,1.08,15.192,6.248,20.864c4.736,5.184,11.312,8.088,18.24,8.088c0.544,0,1.096-0.024,1.64-0.056   c12.096-0.792,28.92-4.04,48.016-13.2c-1.016,9.504,1.2,19.392,7.248,27.72h0.008c6.28,8.64,15.544,14.32,26.104,15.992   c2.128,0.336,4.24,0.504,6.344,0.504c8.384,0,16.52-2.632,23.432-7.656c8.64-6.28,14.32-15.544,15.992-26.104   s-0.864-21.128-7.152-29.768C386.589,394.387,378.053,389.035,368.349,386.987z M271.421,418.995   c-3.816,0.224-5.96-1.688-7.016-2.84c-1.88-2.064-2.712-4.832-2.272-7.576c0.672-4.2,4.144-7.392,8.256-7.568   c8.552-0.384,17.16-1.904,25.56-4.536l10.624-3.32l-12.912-17.784l38.832-28.216l12.928,17.792l6.448-9.096   c5.112-7.216,9.216-14.928,12.2-22.912c1.44-3.848,5.52-6.12,9.752-5.504c2.752,0.44,5.128,2.08,6.496,4.504   c0.784,1.368,1.888,4.168,0.544,7.544c-5.632,14.104-17.88,34.944-44.28,54.136C310.197,412.795,286.581,418.003,271.421,418.995z    M383.813,429.731c-1.008,6.328-4.416,11.888-9.6,15.664c-5.184,3.768-11.568,5.28-17.856,4.288   c-6.336-1.008-11.896-4.416-15.672-9.6c-7.776-10.712-5.392-25.744,5.32-33.52c5.176-3.76,11.504-5.256,17.856-4.288   c6.328,1.008,11.888,4.416,15.664,9.6C383.293,417.059,384.813,423.395,383.813,429.731z" data-original="#333333" class="" data-old_color="#343a40"/>
	<path style="fill:#343A40" d="M473.701,181.067c-6.816-20.984-29.456-32.488-50.4-25.688c-9.504,3.088-17.232,9.56-22.176,18.152   c-10.064-18.632-21.76-31.136-31.072-38.888c-5.808-4.832-13.376-6.712-20.808-5.192c-7.52,1.544-13.832,6.368-17.32,13.208   c-5.376,10.536-2.64,23.472,6.496,30.744c2.712,2.168,5.304,4.512,7.752,7.04l-14.176,4.6l24.728,76.088l14.176-4.608   c-0.496,3.496-1.208,6.912-2.144,10.248c-3.12,11.264,2.272,23.336,12.816,28.696c3.6,1.832,7.504,2.76,11.408,2.76   c3.52,0,7.048-0.752,10.368-2.248c6.896-3.128,11.92-9.12,13.784-16.432h0.008c2.976-11.728,5.08-28.696,2.288-49.632   c5.168,2.304,10.648,3.528,16.184,3.528c4.168,0,8.344-0.656,12.408-1.976c10.168-3.304,18.432-10.368,23.28-19.88   C476.157,202.059,477.013,191.219,473.701,181.067z M401.629,275.603c-0.888,3.52-3.44,5.144-4.872,5.792   c-2.52,1.16-5.408,1.096-7.912-0.184c-3.792-1.928-5.752-6.2-4.648-10.168c2.28-8.24,3.496-16.888,3.592-25.72l0.128-11.144   l-20.912,6.792l-14.832-45.648l20.912-6.8l-6.648-8.936c-5.248-7.064-11.312-13.352-18.032-18.704   c-3.208-2.56-4.144-7.168-2.208-10.96c1.272-2.496,3.56-4.24,6.296-4.808c1.544-0.328,4.56-0.496,7.344,1.824   c11.68,9.72,27.72,27.816,37.8,58.84C407.701,236.811,405.365,260.875,401.629,275.603z M457.045,204.315   c-2.904,5.712-7.864,9.952-13.96,11.928c-12.592,4.096-26.168-2.832-30.248-15.408c-4.096-12.584,2.824-26.16,15.408-30.24   c2.456-0.8,4.944-1.176,7.4-1.176c10.12,0,19.552,6.464,22.84,16.592C460.469,192.107,459.965,198.603,457.045,204.315z" data-original="#333333" class="" data-old_color="#343a40"/>
	<path style="fill:#343A40" d="M253.845,313.979c17.648,0,32-14.352,32-32s-14.352-32-32-32h-32c-8.824,0-16-7.176-16-16   s7.176-16,16-16h32c8.824,0,16,7.176,16,16v8h16v-8c0-17.648-14.352-32-32-32h-8v-16h-16v16h-8c-17.648,0-32,14.352-32,32   s14.352,32,32,32h32c8.824,0,16,7.176,16,16s-7.176,16-16,16h-32c-8.824,0-16-7.176-16-16v-8h-16v8c0,17.648,14.352,32,32,32h8v16   h16v-16H253.845z" data-original="#333333" class="" data-old_color="#343a40"/>
</g></g> </svg>
