<svg xmlns="http://www.w3.org/2000/svg" xmlns:xlink="http://www.w3.org/1999/xlink" viewBox="0 0 215.5 153.16"><defs><style>.cls-1{fill:none;}.cls-2{isolation:isolate;}.cls-3{mix-blend-mode:multiply;fill:url(#Degradado_sin_nombre_14);}.cls-4{clip-path:url(#clip-path);}.cls-5,.cls-6,.cls-8{mix-blend-mode:overlay;}.cls-5{fill:url(#Degradado_sin_nombre_14-2);}.cls-6{fill:url(#linear-gradient);}.cls-7{clip-path:url(#clip-path-2);}.cls-8{opacity:0.48;fill:url(#Degradado_sin_nombre_17);}.cls-9{fill:#fff;}.cls-10,.cls-11,.cls-12,.cls-9{fill-rule:evenodd;}.cls-10{fill:#6e6e6e;}.cls-11{fill:url(#linear-gradient-2);}.cls-12{fill:url(#linear-gradient-3);}</style><linearGradient id="Degradado_sin_nombre_14" x1="784.03" y1="509.25" x2="711.54" y2="597.84" gradientTransform="translate(1020.8 -384.66) rotate(70.13)" gradientUnits="userSpaceOnUse"><stop offset="0" stop-color="#faed24"/><stop offset="1" stop-color="#f79421"/></linearGradient><clipPath id="clip-path" transform="translate(-633.43 -451.13)"><circle id="_Clipping_Path_" data-name="&lt;Clipping Path&gt;" class="cls-1" cx="772.06" cy="512.99" r="40.57" transform="translate(86.72 1137.12) rotate(-75.93)"/></clipPath><linearGradient id="Degradado_sin_nombre_14-2" x1="822.27" y1="491.74" x2="749.79" y2="580.33" gradientTransform="translate(1027.61 -435.97) rotate(70.13)" xlink:href="#Degradado_sin_nombre_14"/><linearGradient id="linear-gradient" x1="685.02" y1="537.05" x2="769.01" y2="537.05" gradientTransform="translate(1071.14 -298.74) rotate(75.93)" gradientUnits="userSpaceOnUse"><stop offset="0" stop-color="#8dc63f"/><stop offset="1" stop-color="#8dc63f"/></linearGradient><clipPath id="clip-path-2" transform="translate(-633.43 -451.13)"><circle id="_Clipping_Path_2" data-name="&lt;Clipping Path&gt;" class="cls-1" cx="727.01" cy="537.05" r="41.98" transform="translate(29.28 1111.64) rotate(-75.93)"/></clipPath><linearGradient id="Degradado_sin_nombre_17" x1="670.8" y1="563.44" x2="724.14" y2="518.09" gradientTransform="translate(1053.39 -243.33) rotate(75.93)" gradientUnits="userSpaceOnUse"><stop offset="0" stop-color="#ed237a"/><stop offset="1" stop-color="#9d1f60"/></linearGradient><linearGradient id="linear-gradient-2" x1="783.13" y1="565.49" x2="805.57" y2="565.49" gradientUnits="userSpaceOnUse"><stop offset="0" stop-color="#1c75bc"/><stop offset="1" stop-color="#00aeef"/></linearGradient><linearGradient id="linear-gradient-3" x1="677.03" y1="533.28" x2="820.63" y2="533.28" xlink:href="#linear-gradient-2"/></defs><title>fiveicon</title><g class="cls-2"><g id="Layer_1" data-name="Layer 1"><g id="_Group_" data-name="&lt;Group&gt;"><g id="_Group_2" data-name="&lt;Group&gt;"><circle id="_Path_" data-name="&lt;Path&gt;" class="cls-3" cx="772.06" cy="512.99" r="40.57" transform="translate(-546.71 685.99) rotate(-75.93)"/><g id="_Clip_Group_" data-name="&lt;Clip Group&gt;"><g class="cls-4"><circle id="_Path_2" data-name="&lt;Path&gt;" class="cls-5" cx="808.35" cy="491.7" r="40.57" transform="translate(-498.6 705.08) rotate(-75.93)"/></g></g></g><g id="_Group_3" data-name="&lt;Group&gt;"><g id="_Group_4" data-name="&lt;Group&gt;"><circle id="_Path_3" data-name="&lt;Path&gt;" class="cls-6" cx="727.01" cy="537.05" r="41.98" transform="translate(-604.15 660.51) rotate(-75.93)"/><g id="_Clip_Group_2" data-name="&lt;Clip Group&gt;"><g class="cls-7"><circle id="_Path_4" data-name="&lt;Path&gt;" class="cls-8" cx="682.63" cy="553.38" r="49.19" transform="translate(-653.58 629.81) rotate(-75.93)"/></g></g></g></g></g><path id="_Path_5" data-name="&lt;Path&gt;" class="cls-9" d="M689.14,518.24c1.88-1.48,8-4.4,13.42-6.47a5.28,5.28,0,0,1,7,5.51c-1.26,15.67,4.5,29,14.21,42-0.91-2.58-6.92-28.58-3.52-27.17,2.61,5.8,6.81,12.74,18.89,22.64-5.77-11.26-14.19-26.49-14.54-40.15a5.3,5.3,0,0,1,6.17-5.44c6.6,1.18,12.11,2.92,19.13,4.83-9-5.68-17.07-13.21-29.46-14.3C704.32,498.26,689.08,518.29,689.14,518.24Z" transform="translate(-633.43 -451.13)"/><path id="_Path_6" data-name="&lt;Path&gt;" class="cls-10" d="M717.48,486.7a6,6,0,0,1,5.2,6.6,5.88,5.88,0,0,1-6.48,5.27A6,6,0,0,1,711,492,5.88,5.88,0,0,1,717.48,486.7Z" transform="translate(-633.43 -451.13)"/><path id="_Path_7" data-name="&lt;Path&gt;" class="cls-9" d="M808.52,518.24c-1.89-1.49-8.11-4.45-13.56-6.52a5.19,5.19,0,0,0-6.92,5.42c1.31,15.73-4.45,29.07-14.2,42.14,0.91-2.58,6.92-28.58,3.52-27.17-2.61,5.8-6.81,12.74-18.89,22.64,5.78-11.29,14.24-26.57,14.54-40.26a5.2,5.2,0,0,0-6-5.36c-6.68,1.18-12.21,2.93-19.29,4.86,9-5.68,17.07-13.21,29.46-14.3C793.34,498.26,808.58,518.29,808.52,518.24Z" transform="translate(-633.43 -451.13)"/><path id="_Path_8" data-name="&lt;Path&gt;" class="cls-10" d="M777.93,486.7a6,6,0,0,0-5.2,6.6,5.88,5.88,0,0,0,6.48,5.27,6,6,0,0,0,5.2-6.6A5.88,5.88,0,0,0,777.93,486.7Z" transform="translate(-633.43 -451.13)"/><path class="cls-11" d="M799.74,553.64c-3.58,6.06-9.51,20-16.61,26.93,8.74-2.25,17.69-15.67,21.64-23.27C807.1,552.83,804,546.47,799.74,553.64Z" transform="translate(-633.43 -451.13)"/><path class="cls-12" d="M812.64,542.12C808.53,557,797,577.84,781.13,582.63c-3.54,1.07-3.47-2.7-.76-7.1,2.41-3.91,8.07-9.85,10.48-14.22,1.8-3.26.85-8.11-3.09-7.25-4.75,1-11.93,12.23-24.18,21.38h0c-9.61,6.19-18.42,10-26.53,11.41l-0.21,0-0.29,0a56.94,56.94,0,0,1-5.83.5c-15.12.17-27.77-9-38.88-28.23a66.34,66.34,0,0,1,39.29-96.93A68.9,68.9,0,0,0,686.3,564a69.62,69.62,0,0,0,4.48,6.78c20.17,32.94,63.85,43.62,97,23.06a70.13,70.13,0,0,0,32.79-52C821.41,534.19,814.58,535.07,812.64,542.12Z" transform="translate(-633.43 -451.13)"/></g></g></svg>